<?xml version="1.0" standalone="no"?>
<!DOCTYPE svg PUBLIC "-//W3C//DTD SVG 20010904//EN"
 "http://www.w3.org/TR/2001/REC-SVG-20010904/DTD/svg10.dtd">
<svg version="1.0" xmlns="http://www.w3.org/2000/svg"
 width="1364.000000pt" height="600.000000pt" viewBox="0 0 1364.000000 600.000000"
 preserveAspectRatio="xMidYMid meet">

<g transform="translate(0.000000,600.000000) scale(0.100000,-0.100000)"
fill="#000000" stroke="none">
<path d="M0 3000 l0 -3000 6820 0 6820 0 0 3000 0 3000 -6820 0 -6820 0 0
-3000z m4273 1061 c31 -30 54 -58 51 -63 -7 -11 -80 -48 -96 -48 -7 0 -22 13
-33 30 -15 22 -30 31 -60 35 -53 8 -87 -6 -121 -50 -22 -29 -28 -47 -27 -85 1
-43 -2 -49 -21 -52 -20 -3 -20 -5 9 -34 24 -25 42 -32 88 -37 32 -4 70 -4 85
-1 27 7 82 51 82 66 0 4 -31 8 -70 8 -38 0 -70 4 -70 9 0 5 3 23 6 41 l7 32
153 -3 154 -4 0 52 c0 29 -4 53 -10 53 -5 0 -10 9 -10 20 0 11 -4 20 -10 20
-5 0 -10 16 -10 35 l0 35 155 0 155 0 1 -32 1 -33 10 33 11 32 133 0 133 0 35
-30 c69 -61 69 -201 0 -232 -20 -10 -24 -17 -19 -37 4 -14 18 -35 31 -48 l25
-23 21 47 c12 27 21 60 21 75 0 20 6 28 21 30 16 2 26 18 42 68 12 36 26 83
30 105 l9 40 67 3 66 3 12 -36 c6 -19 18 -35 25 -35 12 0 58 -117 58 -147 0
-14 8 -16 31 -7 12 4 16 20 16 56 0 46 -1 49 -22 44 -13 -3 -17 -3 -10 0 7 4
12 27 12 65 l0 59 106 0 c136 0 175 -12 234 -72 26 -26 52 -48 57 -48 13 0 33
-45 33 -75 0 -15 -7 -26 -21 -30 -16 -6 -18 -9 -8 -15 11 -7 10 -19 -5 -66
-20 -63 -47 -93 -86 -95 -24 -1 -24 -1 -3 -7 22 -7 21 -8 -14 -32 -35 -24 -44
-25 -209 -28 l-172 -3 -12 35 c-8 24 -18 36 -30 36 -10 0 -22 5 -26 11 -4 8
-9 7 -15 -2 -6 -11 -11 -11 -21 -1 -14 14 -104 16 -113 2 -3 -5 3 -10 13 -10
18 0 19 -3 9 -35 l-10 -35 -103 0 -102 0 -32 66 c-18 36 -39 68 -47 71 -8 3
-12 12 -9 19 7 18 -14 30 -24 14 -4 -7 -8 -38 -8 -69 -1 -112 6 -101 -68 -101
-66 0 -66 0 -62 25 3 14 1 28 -3 31 -5 3 -9 -9 -9 -25 l0 -31 -155 0 -155 0 0
24 c0 13 -6 26 -12 28 -9 3 -8 10 5 23 10 9 16 24 13 32 -3 8 -6 45 -6 81 -1
51 -3 63 -11 49 -6 -10 -10 -28 -9 -40 4 -45 -1 -57 -46 -106 -62 -67 -113
-91 -195 -91 -77 0 -156 34 -190 81 -13 18 -29 29 -44 29 -17 0 -29 9 -40 30
-20 38 -19 40 8 40 21 0 23 5 24 53 2 68 3 74 36 130 43 72 126 108 243 104
l71 -2 56 -54z m1976 27 c18 -16 38 -28 45 -28 15 0 62 -90 71 -137 4 -18 10
-33 15 -33 13 0 19 54 7 62 -6 4 -10 32 -8 70 3 105 -7 98 146 98 127 0 135
-1 163 -25 35 -29 49 -62 55 -130 5 -47 3 -51 -34 -88 -41 -41 -46 -70 -16
-92 9 -7 17 -18 17 -24 0 -7 11 -27 24 -44 46 -63 44 -67 -39 -67 -65 0 -75 2
-75 18 0 9 -9 28 -20 42 -11 14 -20 33 -20 42 0 10 -9 23 -20 30 -11 7 -20 21
-20 30 0 22 -16 23 -24 2 -3 -9 -6 -49 -6 -90 l0 -74 -65 0 -65 0 0 60 c0 51
-3 60 -17 60 -23 0 -35 -9 -55 -41 -9 -15 -41 -38 -69 -53 -94 -46 -204 -32
-286 38 -34 28 -42 51 -22 58 9 3 9 9 0 25 -6 12 -11 36 -11 53 0 24 -4 31
-15 26 -8 -3 -14 -2 -13 2 1 4 -2 15 -7 25 -10 23 21 104 51 133 12 13 20 25
18 27 -8 8 24 28 67 42 26 8 76 13 120 12 66 -2 79 -5 108 -29z m915 21 c24
-7 57 -29 88 -60 27 -27 53 -49 57 -49 5 0 17 -22 29 -49 l20 -49 -31 -7 c-18
-4 -26 -9 -19 -12 17 -6 15 -34 -5 -85 -22 -59 -41 -78 -77 -79 -29 -1 -29 -1
-6 -8 24 -7 24 -7 -15 -31 -36 -23 -53 -25 -167 -28 l-128 -4 0 31 c0 27 -4
31 -27 32 l-28 1 25 7 c23 6 25 12 28 75 2 40 -2 73 -8 81 -9 11 -6 16 14 21
23 6 26 11 26 54 0 33 -5 50 -15 54 -11 4 -15 21 -15 61 l0 55 108 0 c59 0
124 -5 146 -11z m496 -18 c0 -17 5 -33 10 -36 27 -17 2 -25 -80 -25 -53 0 -90
-4 -90 -10 0 -5 5 -10 10 -10 6 0 10 -18 10 -40 l0 -40 75 0 c62 0 75 -3 75
-16 0 -9 -9 -18 -21 -21 -16 -4 -19 -11 -15 -29 6 -23 4 -23 -71 -26 -73 -3
-78 -4 -81 -27 -2 -12 -1 -34 2 -47 6 -23 10 -24 90 -24 91 0 94 -2 88 -56
l-4 -35 -152 3 c-148 3 -151 3 -154 26 -2 12 -8 22 -13 22 -5 0 -9 5 -9 10 0
6 7 10 15 10 12 0 13 15 8 86 -6 81 -5 85 15 91 19 5 22 12 22 59 0 33 -4 54
-11 54 -6 0 -9 9 -6 19 3 12 -1 22 -9 25 -8 3 -14 19 -14 36 l0 30 155 0 155
0 0 -29z m394 18 c23 -6 48 -20 55 -31 12 -19 9 -25 -22 -56 l-35 -35 -30 22
c-35 25 -55 27 -72 6 -13 -16 -6 -35 14 -35 7 0 20 -8 30 -18 9 -11 34 -24 56
-31 44 -13 103 -58 94 -72 -3 -5 0 -9 7 -9 7 0 10 11 7 30 -4 27 -2 29 19 24
22 -6 23 -4 23 50 0 35 -4 56 -11 56 -6 0 -9 9 -6 19 3 12 -1 22 -10 25 -9 4
-13 16 -11 33 l3 28 153 3 152 3 2 -33 1 -33 4 33 4 32 69 0 68 0 29 -45 c15
-25 38 -48 50 -51 13 -4 20 -10 17 -15 -3 -5 15 -39 40 -75 25 -36 46 -71 46
-78 0 -8 7 -20 16 -27 15 -12 16 -11 11 6 -3 11 -8 80 -12 153 l-6 132 60 0
61 0 0 -32 c0 -59 12 -108 26 -108 11 0 14 17 14 70 l0 70 65 0 65 0 0 -63 c0
-36 -5 -68 -12 -75 -9 -9 -9 -12 -1 -12 7 0 15 -9 18 -20 6 -18 15 -20 86 -20
71 0 80 2 77 17 -2 10 -16 21 -33 24 l-30 7 28 1 c27 1 27 2 27 71 l0 70 65 0
65 0 0 -70 c0 -66 -1 -70 -22 -71 -22 -1 -22 -1 2 -8 23 -6 25 -13 30 -76 3
-47 8 -64 13 -51 4 10 5 27 2 37 -5 15 -1 19 17 19 20 0 27 9 45 68 12 37 27
86 33 110 l11 43 67 -3 c65 -3 66 -3 76 -35 5 -18 15 -33 22 -33 7 0 21 -24
32 -52 34 -93 35 -98 16 -98 -13 0 -14 -3 -5 -14 9 -11 51 -120 51 -133 0 -1
-7 -3 -15 -3 -24 0 -18 -28 7 -32 13 -2 27 -15 35 -35 l13 -33 -68 0 -68 0
-13 35 c-8 23 -19 35 -31 35 -10 0 -21 6 -23 13 -4 9 -8 8 -17 -3 -9 -11 -13
-12 -17 -2 -6 15 -113 17 -113 2 0 -5 7 -10 15 -10 18 0 18 1 4 -39 l-11 -31
-110 0 -111 0 5 76 c3 50 10 79 19 85 12 8 12 10 -1 18 -10 7 -17 6 -23 -2 -7
-9 -10 -9 -14 1 -3 8 -27 12 -69 12 l-64 0 0 -34 c0 -24 5 -36 18 -39 10 -3 7
-5 -10 -6 -25 -1 -27 -4 -30 -53 l-3 -53 -62 -3 -63 -3 0 56 c0 53 1 55 28 56
16 1 20 3 10 6 -15 4 -18 20 -20 101 -2 79 -6 97 -19 100 -13 2 -18 -13 -25
-90 -4 -51 -7 -123 -6 -160 l3 -68 -65 0 c-62 0 -66 2 -87 33 -13 17 -32 41
-42 53 -27 29 -97 161 -97 184 0 10 -5 22 -11 26 -8 4 -10 -11 -7 -50 1 -31
-1 -57 -5 -59 -4 -1 -8 -44 -8 -95 l0 -92 -64 0 -65 0 -2 33 -1 32 -4 -33 -4
-33 -152 3 c-149 3 -152 3 -155 26 -2 12 -6 22 -8 22 -3 0 -19 -10 -35 -22
-26 -19 -44 -23 -108 -23 -68 0 -83 3 -119 28 -23 15 -47 27 -54 27 -7 0 -19
10 -27 22 -15 23 -12 26 61 60 l37 17 21 -30 c22 -30 72 -41 86 -17 11 18 13
58 2 58 -5 0 -16 7 -24 15 -9 8 -26 15 -38 15 -30 0 -106 71 -106 99 0 12 -7
24 -15 27 -34 13 1 114 40 114 7 0 15 7 19 15 7 18 95 21 160 4z m-3504 -899
c0 -5 -11 -10 -25 -10 -24 0 -25 -2 -25 -70 0 -56 -3 -70 -15 -70 -12 0 -15
14 -15 70 0 68 -1 70 -25 70 -14 0 -25 5 -25 10 0 6 28 10 65 10 37 0 65 -4
65 -10z m570 -10 c0 -14 7 -20 23 -20 13 0 28 -5 35 -12 14 -14 16 -108 2
-108 -5 0 -10 17 -10 38 0 45 -13 67 -34 59 -11 -5 -16 -19 -16 -52 0 -33 -4
-45 -15 -45 -12 0 -15 16 -15 80 0 64 3 80 15 80 8 0 15 -9 15 -20z m350 -60
c0 -47 -4 -80 -10 -80 -6 0 -10 27 -10 61 0 54 -2 60 -15 49 -9 -7 -18 -10
-22 -6 -7 7 35 56 49 56 4 0 8 -36 8 -80z m150 70 c0 -5 -16 -10 -35 -10 -24
0 -35 -5 -35 -15 0 -9 9 -15 25 -15 15 0 31 -9 41 -24 13 -22 14 -29 2 -53
-11 -22 -20 -28 -47 -28 -21 0 -38 6 -45 17 -14 23 2 37 18 15 27 -36 67 -6
50 37 -5 14 -14 16 -40 11 -36 -6 -37 -4 -28 44 6 29 9 31 50 31 24 0 44 -4
44 -10z m554 -33 c8 -6 8 -10 -1 -14 -15 -6 -18 -83 -3 -83 6 0 10 -4 10 -10
0 -5 -9 -10 -20 -10 -17 0 -20 7 -20 49 0 30 -5 51 -12 54 -9 4 -10 8 -2 14 6
4 14 17 19 28 l8 20 5 -20 c2 -11 9 -24 16 -28z m-1536 -58 l3 -57 -48 2 c-46
1 -48 2 -48 31 0 24 5 31 33 39 36 10 43 26 12 26 -11 0 -20 -4 -20 -10 0 -5
-7 -10 -15 -10 -8 0 -15 4 -15 8 0 19 27 33 60 30 l35 -3 3 -56z m182 41 c16
-30 13 -100 -5 -100 -11 0 -15 12 -15 51 0 43 -3 50 -17 47 -14 -2 -19 -15
-21 -51 -2 -33 -7 -47 -18 -47 -10 0 -14 13 -14 51 0 43 -3 50 -17 47 -14 -2
-19 -15 -21 -51 -4 -67 -22 -58 -22 11 l0 59 70 0 c59 1 72 -2 80 -17z m120 1
c5 -11 10 -38 10 -60 l0 -40 -46 2 c-77 3 -86 56 -13 72 16 4 29 11 29 16 0
13 -34 11 -47 -2 -6 -6 -17 -9 -23 -7 -9 3 -8 9 4 21 24 23 73 22 86 -2z m117
8 c19 -17 18 -109 -2 -109 -11 0 -15 12 -15 50 0 43 -3 50 -20 50 -17 0 -20
-7 -20 -50 0 -38 -4 -50 -15 -50 -12 0 -15 13 -15 58 l0 59 37 1 c20 1 42 -3
50 -9z m247 -5 c36 -35 10 -104 -39 -104 -32 0 -55 25 -55 60 0 35 23 60 55
60 13 0 31 -7 39 -16z m486 1 c17 -20 5 -32 -15 -15 -23 19 -45 5 -45 -30 0
-35 22 -49 45 -30 20 17 32 5 15 -15 -30 -36 -90 -6 -90 45 0 51 60 81 90 45z
m115 3 c2 -7 5 -34 8 -60 l4 -46 -51 1 c-50 2 -51 3 -51 32 0 26 5 31 38 39
42 11 49 26 12 26 -14 0 -25 -4 -25 -10 0 -5 -7 -10 -15 -10 -13 0 -14 4 -5
20 12 23 78 29 85 8z m95 3 c0 -5 -9 -11 -20 -14 -16 -4 -20 -14 -20 -51 0
-25 -4 -46 -10 -46 -6 0 -10 27 -10 60 l0 60 30 0 c17 0 30 -4 30 -9z m98 -3
c7 -7 12 -33 12 -58 l0 -47 -45 -1 c-33 -2 -47 2 -54 16 -13 25 3 49 39 57 17
4 30 11 30 16 0 13 -34 11 -48 -3 -17 -17 -28 -2 -12 17 15 18 61 20 78 3z
m184 -5 c10 -9 18 -24 18 -35 0 -14 -8 -18 -41 -18 -28 0 -39 -4 -36 -12 2 -8
19 -12 42 -11 32 2 35 1 25 -12 -16 -20 -64 -19 -84 1 -9 8 -16 28 -16 44 0
53 53 78 92 43z m98 8 c0 -5 -9 -11 -20 -14 -16 -4 -20 -14 -20 -51 0 -25 -4
-46 -10 -46 -6 0 -10 27 -10 60 l0 60 30 0 c17 0 30 -4 30 -9z m98 -3 c5 -7
13 -23 16 -35 7 -22 4 -23 -39 -23 -33 0 -45 -4 -42 -12 2 -8 19 -12 41 -11
26 2 36 -1 33 -10 -6 -19 -71 -21 -87 -2 -17 20 -17 69 0 89 15 19 64 21 78 4z
m120 -6 c3 -10 -4 -12 -32 -7 -44 9 -50 -10 -6 -20 62 -14 58 -75 -6 -75 -22
0 -37 6 -41 15 -7 21 4 32 19 17 14 -14 48 -16 48 -2 0 5 -16 16 -35 24 -33
14 -46 42 -28 60 12 12 76 2 81 -12z m62 -92 c0 -5 -7 -10 -15 -10 -8 0 -15 5
-15 10 0 6 7 10 15 10 8 0 15 -4 15 -10z m2560 -150 l0 -80 -2400 0 -2400 0 0
80 0 80 2400 0 2400 0 0 -80z m-16 -536 c24 -23 24 -345 0 -368 -14 -14 -244
-16 -2384 -16 -2140 0 -2370 2 -2384 16 -13 13 -16 44 -16 184 0 140 3 171 16
184 14 14 244 16 2384 16 2140 0 2370 -2 2384 -16z"/>
<path d="M4510 4020 c0 -5 7 -10 15 -10 11 0 15 -11 15 -40 l0 -40 75 0 c62 0
75 -3 75 -16 0 -9 -9 -18 -20 -21 -13 -3 -20 -14 -20 -29 0 -23 -3 -24 -75
-24 l-75 0 0 -34 c0 -63 4 -66 95 -66 57 0 85 -4 88 -12 3 -7 6 3 7 22 1 19 5
71 9 115 5 53 4 82 -3 87 -6 4 -9 23 -8 43 l4 35 -91 0 c-54 0 -91 -4 -91 -10z"/>
<path d="M4818 3994 c-3 -29 -1 -38 14 -42 14 -3 16 -7 7 -18 -9 -12 -4 -14
29 -14 62 0 72 7 65 43 -9 47 -30 67 -73 67 -36 0 -38 -2 -42 -36z"/>
<path d="M5560 4021 c0 -6 7 -14 15 -17 10 -4 15 -21 15 -54 0 -44 -2 -48 -27
-55 -16 -4 -22 -9 -16 -13 6 -4 13 -38 15 -75 2 -62 4 -67 26 -67 61 0 116 46
128 108 5 23 1 30 -17 38 -22 10 -21 11 9 11 44 0 47 6 26 50 -13 26 -32 44
-59 57 -50 23 -115 33 -115 17z"/>
<path d="M5257 3930 c-5 -22 -12 -30 -28 -30 -12 0 -19 -5 -16 -12 2 -7 0 -23
-4 -35 -9 -26 0 -30 47 -25 38 5 42 16 18 50 -14 20 -14 22 0 22 18 0 19 4 10
38 -9 31 -20 28 -27 -8z"/>
<path d="M5410 3868 c1 -7 7 -26 15 -43 l14 -30 -2 39 c-1 22 -8 41 -14 44 -7
2 -13 -2 -13 -10z"/>
<path d="M5416 3735 c4 -8 10 -12 15 -9 14 8 10 24 -6 24 -9 0 -12 -6 -9 -15z"/>
<path d="M6508 3994 c-3 -24 0 -38 9 -41 8 -3 12 -12 9 -19 -4 -11 5 -14 39
-14 48 0 61 12 56 50 -5 39 -30 60 -71 60 -36 0 -38 -2 -42 -36z"/>
<path d="M6064 4001 c-37 -22 -71 -88 -55 -104 6 -6 30 -14 53 -18 38 -6 40
-7 11 -8 -42 -1 -43 -19 -1 -77 35 -49 32 -48 108 -30 44 10 60 19 78 46 27
41 28 70 2 77 -13 4 -20 14 -20 30 0 16 -14 40 -39 64 -45 45 -86 51 -137 20z"/>
<path d="M7035 4020 c-3 -6 1 -13 9 -16 12 -4 16 -20 16 -54 0 -44 -2 -48 -27
-55 -16 -4 -22 -10 -15 -12 7 -3 12 -23 12 -51 0 -73 8 -92 39 -92 38 0 72 21
98 59 29 43 29 75 1 89 -21 10 -21 11 -3 10 51 -3 57 1 51 28 -12 44 -37 69
-91 87 -59 19 -81 21 -90 7z"/>
<path d="M8310 4020 c0 -5 5 -10 10 -10 6 0 10 -18 10 -40 l0 -40 75 0 c62 0
75 -3 75 -16 0 -9 -9 -18 -20 -21 -13 -3 -20 -14 -20 -29 0 -23 -3 -24 -75
-24 l-75 0 0 -38 c0 -54 13 -62 101 -62 53 0 79 -4 82 -12 3 -7 6 15 6 50 1
52 4 62 19 62 9 0 13 4 7 8 -5 4 -10 45 -10 92 l0 85 -92 3 c-60 2 -93 -1 -93
-8z"/>
<path d="M9592 3931 c-7 -20 -18 -31 -29 -31 -15 0 -19 -8 -20 -39 l-2 -38 42
2 c35 2 41 6 39 21 -2 11 -9 25 -15 33 -9 11 -9 15 1 18 14 5 16 32 3 51 -6
10 -11 6 -19 -17z"/>
<path d="M8151 3788 c-1 -15 -5 -38 -10 -51 -8 -22 -7 -24 10 -20 20 6 23 29
9 73 l-8 25 -1 -27z"/>
<path d="M4577 3113 c-10 -3 -16 -10 -14 -16 6 -19 41 -14 45 6 4 17 1 18 -31
10z"/>
<path d="M4883 3113 c-7 -2 -13 -11 -13 -20 0 -21 44 -13 48 10 3 17 -10 21
-35 10z"/>
<path d="M5240 3140 c-13 -24 2 -60 25 -60 8 0 19 9 25 20 13 24 -2 60 -25 60
-8 0 -19 -9 -25 -20z"/>
<path d="M5853 3113 c-20 -8 -15 -33 6 -33 16 0 31 18 31 36 0 5 -21 4 -37 -3z"/>
<path d="M6048 3113 c-10 -2 -18 -11 -18 -19 0 -22 44 -14 48 9 4 17 1 18 -30
10z"/>
<path d="M6227 3154 c-14 -14 -6 -24 19 -24 16 0 24 5 22 13 -5 14 -31 21 -41
11z"/>
<path d="M6416 3145 c-4 -11 2 -15 24 -15 22 0 28 4 24 15 -4 8 -14 15 -24 15
-10 0 -20 -7 -24 -15z"/>
<path d="M6767 2972 c-23 -25 -22 -85 1 -105 25 -23 85 -22 105 1 23 25 22 85
-1 105 -25 23 -85 22 -105 -1z"/>
</g>
</svg>
